<svg width="81" height="80" viewBox="0 0 81 80" fill="none" xmlns="http://www.w3.org/2000/svg">
<g clip-path="url(#clip0_397_1803)">
<path d="M55.0236 29.0566H27.4045C27.1519 29.0566 26.9097 29.157 26.7311 29.3356C26.5525 29.5142 26.4521 29.7564 26.4521 30.009C26.4521 30.2616 26.5525 30.5038 26.7311 30.6825C26.9097 30.8611 27.1519 30.9614 27.4045 30.9614H55.0236C55.2762 30.9614 55.5184 30.8611 55.697 30.6825C55.8756 30.5038 55.976 30.2616 55.976 30.009C55.976 29.7564 55.8756 29.5142 55.697 29.3356C55.5184 29.157 55.2762 29.0566 55.0236 29.0566Z" fill="#E27514"/>
<path d="M27.4045 35.7231H48.3569C48.6095 35.7231 48.8517 35.6228 49.0303 35.4442C49.209 35.2656 49.3093 35.0233 49.3093 34.7707C49.3093 34.5182 49.209 34.2759 49.0303 34.0973C48.8517 33.9187 48.6095 33.8184 48.3569 33.8184H27.4045C27.1519 33.8184 26.9097 33.9187 26.7311 34.0973C26.5525 34.2759 26.4521 34.5182 26.4521 34.7707C26.4521 35.0233 26.5525 35.2656 26.7311 35.4442C26.9097 35.6228 27.1519 35.7231 27.4045 35.7231Z" fill="#2D4356"/>
<path d="M55.0236 38.5811H27.4045C27.1519 38.5811 26.9097 38.6814 26.7311 38.86C26.5525 39.0386 26.4521 39.2808 26.4521 39.5334C26.4521 39.786 26.5525 40.0283 26.7311 40.2069C26.9097 40.3855 27.1519 40.4858 27.4045 40.4858H55.0236C55.2762 40.4858 55.5184 40.3855 55.697 40.2069C55.8756 40.0283 55.976 39.786 55.976 39.5334C55.976 39.2808 55.8756 39.0386 55.697 38.86C55.5184 38.6814 55.2762 38.5811 55.0236 38.5811Z" fill="#E27514"/>
<path d="M27.4045 45.2475H48.3569C48.6095 45.2475 48.8517 45.1472 49.0303 44.9686C49.209 44.79 49.3093 44.5477 49.3093 44.2952C49.3093 44.0426 49.209 43.8003 49.0303 43.6217C48.8517 43.4431 48.6095 43.3428 48.3569 43.3428H27.4045C27.1519 43.3428 26.9097 43.4431 26.7311 43.6217C26.5525 43.8003 26.4521 44.0426 26.4521 44.2952C26.4521 44.5477 26.5525 44.79 26.7311 44.9686C26.9097 45.1472 27.1519 45.2475 27.4045 45.2475Z" fill="#2D4356"/>
<path d="M55.0236 48.1045H27.4045C27.1519 48.1045 26.9097 48.2048 26.7311 48.3834C26.5525 48.562 26.4521 48.8043 26.4521 49.0569C26.4521 49.3095 26.5525 49.5517 26.7311 49.7303C26.9097 49.9089 27.1519 50.0093 27.4045 50.0093H55.0236C55.2762 50.0093 55.5184 49.9089 55.697 49.7303C55.8756 49.5517 55.976 49.3095 55.976 49.0569C55.976 48.8043 55.8756 48.562 55.697 48.3834C55.5184 48.2048 55.2762 48.1045 55.0236 48.1045Z" fill="#E27514"/>
<path d="M27.4045 54.771H48.3569C48.6095 54.771 48.8517 54.6706 49.0303 54.492C49.209 54.3134 49.3093 54.0712 49.3093 53.8186C49.3093 53.566 49.209 53.3238 49.0303 53.1452C48.8517 52.9666 48.6095 52.8662 48.3569 52.8662H27.4045C27.1519 52.8662 26.9097 52.9666 26.7311 53.1452C26.5525 53.3238 26.4521 53.566 26.4521 53.8186C26.4521 54.0712 26.5525 54.3134 26.7311 54.492C26.9097 54.6706 27.1519 54.771 27.4045 54.771Z" fill="#2D4356"/>
<path d="M55.0236 57.6279H27.4045C27.1519 57.6279 26.9097 57.7283 26.7311 57.9069C26.5525 58.0855 26.4521 58.3277 26.4521 58.5803C26.4521 58.8329 26.5525 59.0751 26.7311 59.2537C26.9097 59.4323 27.1519 59.5327 27.4045 59.5327H55.0236C55.2762 59.5327 55.5184 59.4323 55.697 59.2537C55.8756 59.0751 55.976 58.8329 55.976 58.5803C55.976 58.3277 55.8756 58.0855 55.697 57.9069C55.5184 57.7283 55.2762 57.6279 55.0236 57.6279Z" fill="#E27514"/>
<path d="M48.3569 62.3896H27.4045C27.1519 62.3896 26.9097 62.49 26.7311 62.6686C26.5525 62.8472 26.4521 63.0894 26.4521 63.342C26.4521 63.5946 26.5525 63.8369 26.7311 64.0155C26.9097 64.1941 27.1519 64.2944 27.4045 64.2944H48.3569C48.6095 64.2944 48.8517 64.1941 49.0303 64.0155C49.209 63.8369 49.3093 63.5946 49.3093 63.342C49.3093 63.0894 49.209 62.8472 49.0303 62.6686C48.8517 62.49 48.6095 62.3896 48.3569 62.3896Z" fill="#2D4356"/>
<path d="M55.0236 19.5332H27.4045C27.1519 19.5332 26.9097 19.6335 26.7311 19.8122C26.5525 19.9908 26.4521 20.233 26.4521 20.4856C26.4521 20.7382 26.5525 20.9804 26.7311 21.159C26.9097 21.3376 27.1519 21.438 27.4045 21.438H55.0236C55.2762 21.438 55.5184 21.3376 55.697 21.159C55.8756 20.9804 55.976 20.7382 55.976 20.4856C55.976 20.233 55.8756 19.9908 55.697 19.8122C55.5184 19.6335 55.2762 19.5332 55.0236 19.5332Z" fill="#E27514"/>
<path d="M27.4045 26.1997H48.3569C48.6095 26.1997 48.8517 26.0993 49.0303 25.9207C49.209 25.7421 49.3093 25.4999 49.3093 25.2473C49.3093 24.9947 49.209 24.7525 49.0303 24.5739C48.8517 24.3953 48.6095 24.2949 48.3569 24.2949H27.4045C27.1519 24.2949 26.9097 24.3953 26.7311 24.5739C26.5525 24.7525 26.4521 24.9947 26.4521 25.2473C26.4521 25.4999 26.5525 25.7421 26.7311 25.9207C26.9097 26.0993 27.1519 26.1997 27.4045 26.1997Z" fill="#2D4356"/>
<path d="M1.45238 72.3901C1.97837 72.3901 2.40476 71.9637 2.40476 71.4377C2.40476 70.9117 1.97837 70.4854 1.45238 70.4854C0.926395 70.4854 0.5 70.9117 0.5 71.4377C0.5 71.9637 0.926395 72.3901 1.45238 72.3901Z" fill="#2D4356"/>
<path d="M5.73837 70.4854H4.3098C4.05722 70.4854 3.81497 70.5857 3.63637 70.7643C3.45776 70.9429 3.35742 71.1851 3.35742 71.4377C3.35742 71.6903 3.45776 71.9326 3.63637 72.1112C3.81497 72.2898 4.05722 72.3901 4.3098 72.3901H5.73837C5.99096 72.3901 6.2332 72.2898 6.41181 72.1112C6.59042 71.9326 6.69076 71.6903 6.69076 71.4377C6.69076 71.1851 6.59042 70.9429 6.41181 70.7643C6.2332 70.5857 5.99096 70.4854 5.73837 70.4854Z" fill="#2D4356"/>
<path d="M56.764 74.2949H52.808C52.5686 74.3141 52.3451 74.4228 52.1822 74.5993C52.0193 74.7757 51.9288 75.0071 51.9288 75.2473C51.9288 75.4875 52.0193 75.7189 52.1822 75.8954C52.3451 76.0718 52.5686 76.1805 52.808 76.1997H56.764C57.0035 76.1805 57.2269 76.0718 57.3898 75.8954C57.5527 75.7189 57.6432 75.4875 57.6432 75.2473C57.6432 75.0071 57.5527 74.7757 57.3898 74.5993C57.2269 74.4228 57.0035 74.3141 56.764 74.2949ZM28.1926 74.2949H24.2365C23.9971 74.3141 23.7737 74.4228 23.6108 74.5993C23.4479 74.7757 23.3574 75.0071 23.3574 75.2473C23.3574 75.4875 23.4479 75.7189 23.6108 75.8954C23.7737 76.0718 23.9971 76.1805 24.2365 76.1997H28.1926C28.432 76.1805 28.6554 76.0718 28.8184 75.8954C28.9813 75.7189 29.0717 75.4875 29.0717 75.2473C29.0717 75.0071 28.9813 74.7757 28.8184 74.5993C28.6554 74.4228 28.432 74.3141 28.1926 74.2949ZM50.0241 74.2949H30.9765C30.7239 74.2949 30.4817 74.3953 30.303 74.5739C30.1244 74.7525 30.0241 74.9947 30.0241 75.2473C30.0241 75.4999 30.1244 75.7421 30.303 75.9207C30.4817 76.0993 30.7239 76.1997 30.9765 76.1997H38.567V77.1521H34.786C34.5334 77.1521 34.2912 77.2524 34.1126 77.431C33.934 77.6096 33.8336 77.8519 33.8336 78.1044C33.8336 78.357 33.934 78.5993 34.1126 78.7779C34.2912 78.9565 34.5334 79.0568 34.786 79.0568H46.6908C46.9434 79.0568 47.1856 78.9565 47.3642 78.7779C47.5428 78.5993 47.6431 78.357 47.6431 78.1044C47.6431 77.8519 47.5428 77.6096 47.3642 77.431C47.1856 77.2524 46.9434 77.1521 46.6908 77.1521H42.4336V76.1997H50.0241C50.2767 76.1997 50.5189 76.0993 50.6975 75.9207C50.8761 75.7421 50.9765 75.4999 50.9765 75.2473C50.9765 74.9947 50.8761 74.7525 50.6975 74.5739C50.5189 74.3953 50.2767 74.2949 50.0241 74.2949Z" fill="#E27514"/>
<path d="M76.6905 70.4854H75.262C75.0094 70.4854 74.7671 70.5857 74.5885 70.7643C74.4099 70.9429 74.3096 71.1851 74.3096 71.4377C74.3096 71.6903 74.4099 71.9326 74.5885 72.1112C74.7671 72.2898 75.0094 72.3901 75.262 72.3901H76.6905C76.9431 72.3901 77.1854 72.2898 77.364 72.1112C77.5426 71.9326 77.6429 71.6903 77.6429 71.4377C77.6429 71.1851 77.5426 70.9429 77.364 70.7643C77.1854 70.5857 76.9431 70.4854 76.6905 70.4854Z" fill="#2D4356"/>
<path d="M79.5481 72.3901C80.0741 72.3901 80.5005 71.9637 80.5005 71.4377C80.5005 70.9117 80.0741 70.4854 79.5481 70.4854C79.0221 70.4854 78.5957 70.9117 78.5957 71.4377C78.5957 71.9637 79.0221 72.3901 79.5481 72.3901Z" fill="#2D4356"/>
<path d="M72.2716 70.4855H68.7666C62.4949 63.1012 65.5648 43.0936 67.8192 28.4241C68.4484 24.3313 68.992 20.7966 69.2715 17.9567C69.3843 17.0254 69.3049 16.0808 69.0382 15.1814C68.7716 14.282 68.3233 13.4468 67.7211 12.7274C67.3992 12.3407 66.9995 12.026 66.5481 11.8039C66.0966 11.5817 65.6035 11.457 65.1007 11.4379C65.0175 11.4549 64.9318 11.4549 64.8486 11.4379H17.579C17.5431 11.4395 17.5073 11.4431 17.4718 11.4487C17.4125 11.4451 17.3533 11.4379 17.294 11.4379C13.9946 11.4379 11.6901 14.0802 11.6901 17.8632V40.1772C11.6695 41.0214 11.9843 41.8393 12.5655 42.4519C13.1468 43.0645 13.9471 43.4217 14.7912 43.4454H16.031C14.9104 54.0697 14.8351 64.6196 18.5907 70.4855H8.72748C8.59199 70.4678 8.45429 70.4792 8.32356 70.519C8.19283 70.5588 8.07209 70.626 7.96941 70.7161C7.86672 70.8062 7.78445 70.9173 7.72808 71.0417C7.67172 71.1662 7.64257 71.3013 7.64257 71.4379C7.64257 71.5746 7.67172 71.7096 7.72808 71.8341C7.78445 71.9586 7.86672 72.0696 7.96941 72.1597C8.07209 72.2499 8.19283 72.3171 8.32356 72.3568C8.45429 72.3966 8.59199 72.408 8.72748 72.3903H72.2716C72.4071 72.408 72.5448 72.3966 72.6755 72.3568C72.8062 72.3171 72.927 72.2499 73.0297 72.1597C73.1324 72.0696 73.2146 71.9586 73.271 71.8341C73.3274 71.7096 73.3565 71.5746 73.3565 71.4379C73.3565 71.3013 73.3274 71.1662 73.271 71.0417C73.2146 70.9173 73.1324 70.8062 73.0297 70.7161C72.927 70.626 72.8062 70.5588 72.6755 70.519C72.5448 70.4792 72.4071 70.4678 72.2716 70.4855V70.4855ZM14.7912 41.5407C14.4524 41.5167 14.1368 41.3601 13.9128 41.1048C13.6888 40.8496 13.5746 40.5162 13.5949 40.1772V17.8632C13.5949 15.778 14.5638 13.3427 17.294 13.3427C17.5303 13.3648 17.7596 13.4352 17.9676 13.5495C18.1756 13.6638 18.3579 13.8196 18.5033 14.0072C18.9261 14.5297 19.2386 15.1325 19.4218 15.7793C19.605 16.426 19.6551 17.1031 19.5691 17.7698C19.2943 20.5581 18.7548 24.0691 18.1299 28.1348C17.4883 32.3094 16.7817 36.9053 16.2425 41.5407L14.7912 41.5407ZM20.9449 70.4855C14.6831 63.0944 17.7588 43.0874 20.0125 28.4241C20.6417 24.3313 21.1849 20.7966 21.4646 17.9567C21.6444 16.3407 21.2642 14.712 20.3875 13.3427H64.8486C64.9318 13.3258 65.0175 13.3258 65.1007 13.3427C65.3369 13.3648 65.5661 13.4351 65.7741 13.5493C65.982 13.6636 66.1643 13.8192 66.3097 14.0067C66.7327 14.5293 67.0452 15.1322 67.2285 15.779C67.4118 16.4258 67.462 17.103 67.3761 17.7698C67.1012 20.5586 66.5618 24.0695 65.9368 28.1348C63.7377 42.4415 60.7768 61.7072 66.3948 70.4855H20.9449ZM69.8603 3.87375C70.1429 3.87375 70.4191 3.78996 70.654 3.63299C70.8889 3.47601 71.072 3.2529 71.1802 2.99186C71.2883 2.73083 71.3166 2.44359 71.2615 2.16647C71.2063 1.88936 71.0703 1.63481 70.8705 1.43502C70.6707 1.23523 70.4161 1.09917 70.139 1.04405C69.8619 0.98893 69.5747 1.01722 69.3136 1.12535C69.0526 1.23347 68.8295 1.41657 68.6725 1.6515C68.5155 1.88643 68.4318 2.16263 68.4318 2.44517C68.4322 2.82392 68.5828 3.18703 68.8507 3.45485C69.1185 3.72266 69.4816 3.87331 69.8603 3.87375ZM69.8603 1.73089C70.0016 1.73089 70.1397 1.77278 70.2572 1.85127C70.3746 1.92975 70.4662 2.04131 70.5202 2.17183C70.5743 2.30235 70.5884 2.44597 70.5609 2.58452C70.5333 2.72308 70.4653 2.85036 70.3654 2.95025C70.2655 3.05014 70.1382 3.11817 69.9997 3.14573C69.8611 3.1733 69.7175 3.15915 69.587 3.10509C69.4565 3.05102 69.3449 2.95947 69.2664 2.84201C69.1879 2.72455 69.146 2.58645 69.146 2.44517C69.1462 2.25579 69.2215 2.07422 69.3555 1.9403C69.4894 1.80639 69.6709 1.73107 69.8603 1.73089ZM77.6424 36.5356C77.454 36.5356 77.2699 36.5914 77.1133 36.6961C76.9567 36.8007 76.8346 36.9495 76.7625 37.1235C76.6904 37.2975 76.6716 37.489 76.7083 37.6738C76.7451 37.8585 76.8358 38.0282 76.969 38.1614C77.1021 38.2946 77.2719 38.3853 77.4566 38.422C77.6413 38.4588 77.8328 38.4399 78.0069 38.3678C78.1809 38.2958 78.3296 38.1737 78.4343 38.0171C78.5389 37.8605 78.5948 37.6763 78.5948 37.488C78.5945 37.2355 78.494 36.9934 78.3155 36.8148C78.137 36.6363 77.8949 36.5359 77.6424 36.5356ZM77.6424 37.9641C77.5482 37.9641 77.4561 37.9362 77.3778 37.8839C77.2995 37.8316 77.2385 37.7572 77.2025 37.6702C77.1664 37.5832 77.157 37.4874 77.1753 37.3951C77.1937 37.3027 77.2391 37.2178 77.3057 37.1512C77.3723 37.0846 77.4571 37.0393 77.5495 37.0209C77.6419 37.0025 77.7376 37.012 77.8246 37.048C77.9116 37.0841 77.986 37.1451 78.0383 37.2234C78.0907 37.3017 78.1186 37.3938 78.1186 37.488C78.1185 37.6142 78.0682 37.7353 77.979 37.8245C77.8897 37.9138 77.7686 37.964 77.6424 37.9641ZM3.35668 2.8665C3.16832 2.8665 2.98418 2.92235 2.82756 3.027C2.67095 3.13165 2.54888 3.28039 2.47679 3.45442C2.40471 3.62844 2.38585 3.81993 2.4226 4.00468C2.45934 4.18942 2.55005 4.35912 2.68324 4.49231C2.81644 4.62551 2.98613 4.71621 3.17088 4.75296C3.35562 4.78971 3.54711 4.77085 3.72114 4.69876C3.89516 4.62668 4.04391 4.50461 4.14855 4.34799C4.2532 4.19137 4.30906 4.00724 4.30906 3.81888C4.30877 3.56638 4.20834 3.32431 4.02979 3.14576C3.85125 2.96722 3.60918 2.86679 3.35668 2.8665ZM3.35668 4.29507C3.2625 4.29507 3.17043 4.26714 3.09212 4.21482C3.01381 4.16249 2.95278 4.08812 2.91674 4.00111C2.88069 3.9141 2.87126 3.81835 2.88964 3.72598C2.90801 3.63361 2.95336 3.54876 3.01996 3.48216C3.08656 3.41556 3.17141 3.37021 3.26378 3.35184C3.35615 3.33346 3.4519 3.34289 3.53891 3.37894C3.62592 3.41498 3.70029 3.47601 3.75262 3.55432C3.80494 3.63263 3.83287 3.7247 3.83287 3.81888C3.83274 3.94513 3.78253 4.06618 3.69326 4.15546C3.60398 4.24473 3.48293 4.29494 3.35668 4.29507Z" fill="#2D4356"/>
<path d="M70.8128 23.3422C70.6244 23.3422 70.4403 23.3981 70.2837 23.5027C70.1271 23.6074 70.005 23.7561 69.9329 23.9301C69.8608 24.1042 69.842 24.2957 69.8787 24.4804C69.9155 24.6651 70.0062 24.8348 70.1394 24.968C70.2726 25.1012 70.4423 25.1919 70.627 25.2287C70.8117 25.2654 71.0032 25.2466 71.1773 25.1745C71.3513 25.1024 71.5 24.9803 71.6047 24.8237C71.7093 24.6671 71.7652 24.483 71.7652 24.2946C71.7649 24.0421 71.6645 23.8 71.4859 23.6215C71.3074 23.4429 71.0653 23.3425 70.8128 23.3422ZM70.8128 24.7708C70.7186 24.7708 70.6266 24.7429 70.5482 24.6905C70.4699 24.6382 70.4089 24.5638 70.3729 24.4768C70.3368 24.3898 70.3274 24.2941 70.3458 24.2017C70.3641 24.1093 70.4095 24.0245 70.4761 23.9579C70.5427 23.8913 70.6275 23.8459 70.7199 23.8276C70.8123 23.8092 70.908 23.8186 70.995 23.8547C71.0821 23.8907 71.1564 23.9517 71.2087 24.03C71.2611 24.1083 71.289 24.2004 71.289 24.2946C71.2889 24.4209 71.2387 24.5419 71.1494 24.6312C71.0601 24.7204 70.9391 24.7707 70.8128 24.7708ZM17.7134 8.58031C17.7134 8.39195 17.6575 8.20782 17.5529 8.0512C17.4482 7.89458 17.2995 7.77251 17.1254 7.70043C16.9514 7.62834 16.7599 7.60948 16.5752 7.64623C16.3904 7.68298 16.2207 7.77368 16.0875 7.90688C15.9543 8.04007 15.8636 8.20977 15.8269 8.39451C15.7901 8.57925 15.809 8.77075 15.8811 8.94477C15.9532 9.1188 16.0752 9.26754 16.2319 9.37219C16.3885 9.47684 16.5726 9.53269 16.761 9.53269C17.0135 9.5324 17.2555 9.43197 17.4341 9.25343C17.6126 9.07488 17.7131 8.83281 17.7134 8.58031ZM16.2848 8.58031C16.2848 8.48613 16.3127 8.39406 16.365 8.31575C16.4174 8.23745 16.4917 8.17641 16.5787 8.14037C16.6658 8.10433 16.7615 8.0949 16.8539 8.11327C16.9462 8.13164 17.0311 8.177 17.0977 8.24359C17.1643 8.31019 17.2096 8.39504 17.228 8.48741C17.2464 8.57978 17.237 8.67553 17.2009 8.76254C17.1649 8.84955 17.1038 8.92393 17.0255 8.97625C16.9472 9.02857 16.8552 9.0565 16.761 9.0565C16.6347 9.05638 16.5137 9.00617 16.4244 8.91689C16.3351 8.82761 16.2849 8.70657 16.2848 8.58031Z" fill="#2D4356"/>
<path d="M5.68454 32.8718L6.39263 31.9408L5.94549 31.6875L5.49073 32.7304H5.47597L5.01406 31.6946L4.5593 31.9556L5.25978 32.8646V32.8794L4.16406 32.738V33.2446L5.26692 33.1032V33.118L4.5593 34.0265L4.98359 34.2951L5.46835 33.2446H5.48311L5.93025 34.2875L6.39978 34.0194L5.68454 33.1251V33.1104L6.8093 33.2446V32.738L5.68454 32.887V32.8718Z" fill="#E27514"/>
<path d="M34.6592 1.76717L34.2516 2.2905L34.4963 2.44479L34.7754 1.84003H34.7839L35.0411 2.4405L35.3116 2.28622L34.8997 1.77145V1.76288L35.5473 1.84003V1.54812L34.8997 1.63384V1.62526L35.3073 1.08907L35.0501 0.943359L34.7882 1.54384H34.7797L34.5139 0.947645L34.2516 1.09765L34.6554 1.62098V1.62955L34.0244 1.54812V1.84003L34.6592 1.7586V1.76717Z" fill="#E27514"/>
<path d="M78.94 13.6092V13.1125L77.8367 13.2582V13.2439L78.5314 12.3306L78.0928 12.082L77.6471 13.1049H77.6319L77.1795 12.0892L76.7328 12.3449L77.4205 13.2368V13.2511L76.3457 13.1125V13.6092L77.4276 13.4706V13.4849L76.7328 14.3763L77.1495 14.6397L77.6252 13.6092H77.639L78.0776 14.6325L78.5386 14.3692L77.8367 13.492V13.4777L78.94 13.6092Z" fill="#E27514"/>
<path d="M52.0958 8.47992L52.6948 7.6923L52.3167 7.47754L51.9324 8.35992H51.9196L51.5286 7.48373L51.1439 7.70468L51.7367 8.47373V8.48659L50.8096 8.36659V8.79516L51.7429 8.67563V8.68802L51.1439 9.45706L51.5029 9.68421L51.9134 8.79516H51.9258L52.3039 9.67754L52.701 9.45087L52.0958 8.69421V8.68183L53.0477 8.79516V8.36659L52.0958 8.49278V8.47992Z" fill="#E27514"/>
</g>
<defs>
<clipPath id="clip0_397_1803">
<rect width="80" height="80" fill="white" transform="translate(0.5)"/>
</clipPath>
</defs>
</svg>
